<svg width="27" height="27" viewBox="0 0 27 27" fill="none" xmlns="http://www.w3.org/2000/svg">
<path d="M19.3106 6.57348C19.0562 6.57348 18.8074 6.64894 18.5958 6.79031C18.3843 6.93169 18.2193 7.13262 18.122 7.36772C18.0246 7.60281 17.9991 7.8615 18.0488 8.11107C18.0984 8.36064 18.2209 8.58989 18.4009 8.76982C18.5808 8.94976 18.81 9.07229 19.0596 9.12193C19.3092 9.17158 19.5679 9.1461 19.803 9.04872C20.0381 8.95134 20.239 8.78644 20.3804 8.57486C20.5217 8.36328 20.5972 8.11453 20.5972 7.86007C20.5972 7.51885 20.4617 7.1916 20.2204 6.95032C19.9791 6.70904 19.6518 6.57348 19.3106 6.57348ZM24.2425 9.1681C24.2217 8.27853 24.0551 7.3984 23.7493 6.56276C23.4767 5.84778 23.0524 5.20035 22.5056 4.66505C21.9747 4.11549 21.3258 3.69387 20.6079 3.43207C19.7745 3.11703 18.8934 2.94661 18.0026 2.92816C16.8661 2.86383 16.5016 2.86383 13.5853 2.86383C10.6691 2.86383 10.3045 2.86383 9.16804 2.92816C8.27724 2.94661 7.39613 3.11703 6.5627 3.43207C5.84616 3.69652 5.19778 4.11778 4.66499 4.66505C4.11543 5.19596 3.69381 5.84489 3.43201 6.56276C3.11697 7.39619 2.94655 8.2773 2.9281 9.1681C2.86377 10.3046 2.86377 10.6691 2.86377 13.5854C2.86377 16.5016 2.86377 16.8662 2.9281 18.0027C2.94655 18.8934 3.11697 19.7746 3.43201 20.608C3.69381 21.3259 4.11543 21.9748 4.66499 22.5057C5.19778 23.053 5.84616 23.4742 6.5627 23.7387C7.39613 24.0537 8.27724 24.2241 9.16804 24.2426C10.3045 24.3069 10.6691 24.3069 13.5853 24.3069C16.5016 24.3069 16.8661 24.3069 18.0026 24.2426C18.8934 24.2241 19.7745 24.0537 20.6079 23.7387C21.3258 23.4769 21.9747 23.0553 22.5056 22.5057C23.0548 21.9724 23.4795 21.3244 23.7493 20.608C24.0551 19.7723 24.2217 18.8922 24.2425 18.0027C24.2425 16.8662 24.3069 16.5016 24.3069 13.5854C24.3069 10.6691 24.3069 10.3046 24.2425 9.1681ZM22.3127 17.874C22.3048 18.5546 22.1816 19.2289 21.9481 19.8682C21.7769 20.3348 21.502 20.7564 21.144 21.1012C20.7962 21.4555 20.3755 21.7299 19.911 21.9053C19.2717 22.1388 18.5974 22.262 17.9168 22.2698C16.8447 22.3234 16.448 22.3342 13.6282 22.3342C10.8084 22.3342 10.4117 22.3342 9.33958 22.2698C8.63292 22.2831 7.92926 22.1742 7.2596 21.9482C6.8155 21.7639 6.41405 21.4901 6.08023 21.1441C5.72437 20.7996 5.45285 20.3777 5.28684 19.9111C5.02508 19.2626 4.8799 18.573 4.85798 17.874C4.85798 16.8018 4.79365 16.4051 4.79365 13.5854C4.79365 10.7656 4.79365 10.3689 4.85798 9.29676C4.86278 8.60099 4.9898 7.91147 5.23323 7.25966C5.42198 6.80712 5.7117 6.40372 6.08023 6.08029C6.40597 5.71165 6.80853 5.41888 7.2596 5.22257C7.91314 4.98674 8.60194 4.86348 9.2967 4.85804C10.3689 4.85804 10.7655 4.79371 13.5853 4.79371C16.4051 4.79371 16.8018 4.79371 17.8739 4.85804C18.5545 4.86584 19.2288 4.9891 19.8681 5.22257C20.3554 5.40339 20.7927 5.69737 21.144 6.08029C21.4953 6.40964 21.7699 6.81229 21.9481 7.25966C22.1864 7.91253 22.3097 8.60177 22.3127 9.29676C22.3663 10.3689 22.377 10.7656 22.377 13.5854C22.377 16.4051 22.3663 16.8018 22.3127 17.874ZM13.5853 8.08522C12.4979 8.08734 11.4356 8.41172 10.5325 9.01737C9.62944 9.62302 8.92614 10.4828 8.51149 11.488C8.09684 12.4932 7.98944 13.5987 8.20288 14.665C8.41631 15.7312 8.94099 16.7102 9.71063 17.4783C10.4803 18.2465 11.4603 18.7693 12.5269 18.9806C13.5936 19.192 14.6989 19.0824 15.7033 18.6658C16.7077 18.2492 17.5661 17.5442 18.17 16.64C18.7739 15.7357 19.0962 14.6727 19.0962 13.5854C19.0976 12.8618 18.956 12.145 18.6794 11.4764C18.4028 10.8078 17.9968 10.2004 17.4846 9.68922C16.9724 9.17806 16.3643 8.7732 15.6951 8.49793C15.0259 8.22265 14.3089 8.08239 13.5853 8.08522ZM13.5853 17.1556C12.8792 17.1556 12.1889 16.9463 11.6018 16.5539C11.0146 16.1616 10.557 15.604 10.2868 14.9517C10.0166 14.2993 9.94588 13.5814 10.0836 12.8888C10.2214 12.1963 10.5614 11.5601 11.0607 11.0608C11.5601 10.5615 12.1962 10.2215 12.8888 10.0837C13.5814 9.94594 14.2992 10.0166 14.9516 10.2869C15.604 10.5571 16.1616 11.0147 16.5539 11.6018C16.9462 12.189 17.1556 12.8792 17.1556 13.5854C17.1556 14.0542 17.0632 14.5185 16.8838 14.9517C16.7044 15.3848 16.4414 15.7784 16.1099 16.1099C15.7783 16.4415 15.3848 16.7045 14.9516 16.8839C14.5184 17.0633 14.0542 17.1556 13.5853 17.1556Z" fill="black"/>
</svg>
