<svg width="18" height="17" viewBox="0 0 18 17" fill="none" xmlns="http://www.w3.org/2000/svg">
<path d="M0.520325 1.90117C0.520325 1.35245 0.713511 0.899764 1.09987 0.543112C1.48622 0.186444 1.98851 0.00811768 2.60668 0.00811768C3.21383 0.00811768 3.70505 0.183695 4.08037 0.534881C4.46673 0.897031 4.65992 1.36891 4.65992 1.95056C4.65992 2.47732 4.47226 2.91628 4.09693 3.26747C3.71058 3.62962 3.20278 3.81069 2.57356 3.81069H2.557C1.94986 3.81069 1.45864 3.62962 1.08331 3.26747C0.707981 2.90532 0.520325 2.44988 0.520325 1.90117ZM0.735584 16.3049V5.30868H4.41154V16.3049H0.735584ZM6.44822 16.3049H10.1242V10.1648C10.1242 9.78067 10.1683 9.48436 10.2566 9.27586C10.4112 8.90273 10.6458 8.58722 10.9604 8.32934C11.275 8.07144 11.6696 7.94249 12.1443 7.94249C13.3807 7.94249 13.9988 8.77104 13.9988 10.4282V16.3049H17.6748V10.0002C17.6748 8.37597 17.2884 7.14412 16.5157 6.30459C15.743 5.46506 14.7219 5.04529 13.4524 5.04529C12.0284 5.04529 10.919 5.65436 10.1242 6.87251V6.90543H10.1076L10.1242 6.87251V5.30868H6.44822C6.47029 5.65985 6.48134 6.75178 6.48134 8.58449C6.48134 10.4172 6.47029 12.9906 6.44822 16.3049Z" fill="black"/>
</svg>
