<svg width="22" height="21" viewBox="0 0 22 21" fill="none" xmlns="http://www.w3.org/2000/svg">
<path d="M9.92683 1.36484C9.57156 1.36484 9.28354 1.65285 9.28354 2.00813V14.0163C9.28354 15.0821 8.4195 15.9461 7.35366 15.9461C6.28782 15.9461 5.42378 15.0821 5.42378 14.0163C5.42378 12.9505 6.28782 12.0864 7.35366 12.0864C7.70894 12.0864 7.99695 11.7984 7.99695 11.4431V8.86992C7.99695 8.51464 7.70894 8.22663 7.35366 8.22663C4.15614 8.22663 1.56403 10.8188 1.56403 14.0163C1.56403 17.2138 4.15614 19.8059 7.35366 19.8059C10.5512 19.8059 13.1433 17.2138 13.1433 14.0163V9.05613C14.4432 9.88821 15.9888 10.3709 17.6463 10.3709C18.0016 10.3709 18.2896 10.0829 18.2896 9.72764V7.15447C18.2896 6.79919 18.0016 6.51118 17.6463 6.51118C15.1594 6.51118 13.1433 4.4951 13.1433 2.00813C13.1433 1.65285 12.8553 1.36484 12.5 1.36484H9.92683Z" fill="#2E2E2E"/>
</svg>
