<svg width="118" height="26" viewBox="0 0 118 26" fill="none" xmlns="http://www.w3.org/2000/svg">
<path d="M41.5583 22.5836L41.5613 22.5854C43.3607 23.6298 45.31 24.1523 47.4047 24.1523C49.0563 24.1523 50.6152 23.8109 52.0786 23.1276L52.0786 23.1276L52.0813 23.1263C53.3447 22.5179 54.4583 21.7098 55.4208 20.7028V23.4017V23.6517H55.6708H58.7783H59.0283V23.4017V12.4511V1.5006V1.2506H58.7783H55.6708H55.4208V1.5006V4.19999C54.458 3.19524 53.3441 2.39705 52.08 1.80659C50.6164 1.1021 49.057 0.75 47.4047 0.75C45.2891 0.75 43.3389 1.28304 41.5593 2.34935C39.7826 3.393 38.3645 4.81042 37.3075 6.59834L37.3075 6.59833L37.3064 6.60024C36.2687 8.39119 35.75 10.3431 35.75 12.4511C35.75 14.5592 36.2687 16.5111 37.3064 18.302L37.3075 18.3039C38.3645 20.0917 39.7822 21.5193 41.5583 22.5836ZM54.3346 8.35076L54.3355 8.35225C55.0589 9.60669 55.4208 10.9714 55.4208 12.4511C55.4208 13.9306 55.0591 15.3061 54.335 16.5821C53.6102 17.8386 52.6356 18.84 51.4087 19.5895C50.1846 20.3166 48.8516 20.68 47.4047 20.68C45.9581 20.68 44.6143 20.3167 43.3688 19.589C42.1423 18.8395 41.1679 17.8383 40.4433 16.5821C39.7193 15.3061 39.3576 13.9306 39.3576 12.4511C39.3576 10.9714 39.7194 9.60669 40.4428 8.35226L40.4437 8.35076C41.1687 7.07338 42.143 6.0729 43.3683 5.34484L43.3694 5.34421C44.6151 4.59571 45.9587 4.22229 47.4047 4.22229C48.8507 4.22229 50.1833 4.59567 51.4075 5.34328L51.4074 5.34329L51.41 5.34484C52.6354 6.0729 53.6096 7.07337 54.3346 8.35076ZM64.9979 23.6517H65.2479V23.4017V7.44517C65.2479 6.59272 65.5435 5.86205 66.1413 5.24068C66.7373 4.62131 67.4495 4.31615 68.2919 4.31615C69.1342 4.31615 69.8464 4.62131 70.4424 5.24068C71.0403 5.86205 71.3359 6.59272 71.3359 7.44517V23.4017V23.6517H71.5859H74.6934H74.9434V23.4017V7.44517C74.9434 6.23633 74.6537 5.12012 74.0731 4.10144C73.5147 3.06455 72.7497 2.24987 71.779 1.66311C70.8075 1.05492 69.747 0.75 68.6026 0.75C67.3978 0.75 66.2781 1.09148 65.2479 1.7684V1.5006V1.2506H64.9979H61.8903H61.6403V1.5006V23.4017V23.6517H61.8903H64.9979ZM77.8075 6.59833L77.8064 6.60024C76.7687 8.39119 76.25 10.3431 76.25 12.4511C76.25 14.5592 76.7687 16.5111 77.8064 18.302L77.8075 18.3039C78.8645 20.0917 80.2823 21.5193 82.0583 22.5836L82.0602 22.5848C83.8399 23.63 85.7897 24.1523 87.9047 24.1523C90.1901 24.1523 92.2786 23.5336 94.1637 22.2966L94.2766 22.2226V22.0876V18.1141V17.4619L93.8406 17.947C93.0754 18.7986 92.1802 19.4669 91.1538 19.9532C90.1311 20.4377 89.049 20.68 87.9047 20.68C86.6384 20.68 85.4553 20.397 84.3518 19.8315C83.2452 19.2642 82.3106 18.4955 81.5461 17.5239C80.8637 16.6134 80.3844 15.601 80.1079 14.4845H99.1541H99.3793L99.4027 14.2605C99.4858 13.466 99.5284 12.861 99.5284 12.4511C99.5284 10.3425 98.999 8.39034 97.9404 6.59943C96.904 4.81088 95.4959 3.39313 93.7191 2.34938C91.9399 1.2833 90.0001 0.75 87.9047 0.75C85.8092 0.75 83.8593 1.28338 82.0598 2.34903C80.2829 3.39271 78.8646 4.81023 77.8075 6.59833ZM94.4134 7.71534C95.1217 8.70998 95.579 9.80802 95.786 11.0122H79.9922C80.1979 9.80718 80.6454 8.70867 81.3348 7.71401C82.1002 6.63965 83.0555 5.78954 84.2025 5.16147C85.346 4.53535 86.5787 4.22229 87.9047 4.22229C89.2094 4.22229 90.4318 4.53503 91.5759 5.16147C92.7227 5.78946 93.6672 6.63921 94.4116 7.71279L94.4134 7.71534Z" fill="black" stroke="black" stroke-width="0.5"/>
<path d="M4.91549 24.1836H5.04177L5.11671 24.0819L16.8594 8.15399V23.9336V24.6776L17.3087 24.0845L29.389 8.13764V23.9336V24.1836H29.639H33.107H33.357V23.9336V1.65524V1.40524H33.107H29.639H29.5127L29.4377 1.50695L20.6037 13.4964V1.65524V1.40524H20.3537H17.1094H16.9817L16.9068 1.50875L0.797415 23.7871L0.510713 24.1836H1H4.91549Z" fill="black" stroke="black" stroke-width="0.5"/>
<path d="M117.36 2.31046V2.06046H117.11H97H96.4797L96.8048 2.46668L99.7534 6.15061L99.8285 6.24439H99.9486H115.927V7.35075L97.5059 17.2799L97.3745 17.3507V17.5V23.9335V24.1835H97.6245H117.231H117.481V23.9335V20.2496V19.9996H117.231H98.807V19.8794L117.227 10.0993L117.36 10.0288V9.87853V2.31046Z" fill="black" stroke="black" stroke-width="0.5"/>
</svg>
