<svg width="45" height="174" viewBox="0 0 45 174" fill="none" xmlns="http://www.w3.org/2000/svg">
<path fill-rule="evenodd" clip-rule="evenodd" d="M5.3662e-07 129L8.94366e-08 166.5C4.00421e-08 170.642 3.35786 174 7.5 174V174C11.6421 174 15 170.642 15 166.5L15 159C15 150.716 21.7157 144 30 144V144C38.2843 144 45 137.284 45 129L45 46C45 37.7157 38.2843 31 30 31V31C21.7157 31 15 24.2843 15 16L15 7.5C15 3.35787 11.6421 2.04618e-06 7.5 1.99679e-06V1.99679e-06C3.35786 1.94739e-06 2.03489e-06 3.35787 1.98549e-06 7.5L1.52638e-06 46L5.3662e-07 129Z" fill="white"/>
</svg>
