<svg width="253" height="56" viewBox="0 0 253 56" fill="none" xmlns="http://www.w3.org/2000/svg">
<path fill-rule="evenodd" clip-rule="evenodd" d="M-6.55672e-07 48.5C-2.93554e-07 52.6422 3.35787 56 7.50001 56L245.5 56C249.642 56 253 52.6421 253 48.5V48.5C253 44.3579 249.642 41 245.5 41L236.5 41C227.387 41 220 33.6127 220 24.5L220 15C220 6.71572 213.284 -3.42638e-07 205 3.81596e-07L46 1.42818e-05C37.7157 1.50061e-05 31 6.71575 31 15L31 25.5C31 34.0604 24.0604 41 15.5 41L7.50001 41C3.35787 41 -1.01779e-06 44.3579 -6.55672e-07 48.5V48.5Z" fill="white"/>
</svg>
