<svg width="1280" height="832" viewBox="0 0 1280 832" fill="none" xmlns="http://www.w3.org/2000/svg">
<path fill-rule="evenodd" clip-rule="evenodd" d="M399 35C399 26.7261 393.005 14 384.732 14H44C27.4315 14 14 27.4315 14 44V583C14 591.837 21.1634 599 30 599C38.2843 599 45 605.716 45 614L45 697C45 705.284 38.2843 712 30 712C21.1634 712 14 719.163 14 728V788C14 804.569 27.4315 818 44 818H289C302.255 818 313 807.255 313 794C313 785.716 319.716 779 328 779H475.5C483.784 779 490.5 785.716 490.5 794C490.5 807.255 501.245 818 514.5 818H1236C1252.57 818 1266 804.569 1266 788V189C1266 181.82 1260.18 176 1253 176C1244.72 176 1238 169.284 1238 161V78C1238 69.7157 1244.72 63 1253 63C1260.18 63 1266 57.1797 1266 50V38.5C1266 24.969 1255.03 14 1241.5 14H897.269C888.995 14 883 26.7262 883 35C883 50.464 870.464 63 855 63L427 63C411.536 63 399 50.4639 399 35ZM1280 818V183C1280 179.134 1283.13 176 1287 176C1295.28 176 1302 169.284 1302 161V78C1302 69.7157 1295.28 63 1287 63C1283.13 63 1280 59.866 1280 56V14C1280 6.26801 1273.73 0 1266 0H14C6.26801 0 -3.8147e-06 6.26801 -3.8147e-06 14V595C-3.8147e-06 597.209 -1.79086 599 -4 599C-12.2843 599 -19 605.716 -19 614L-19 697C-19 705.284 -12.2843 712 -4 712C-1.79086 712 -3.8147e-06 713.791 -3.8147e-06 716V818C-3.8147e-06 825.732 6.26801 832 14 832H294.024C305.553 832 316.47 843 328 843H475.5C487.03 843 497.947 832 509.476 832H1266C1273.73 832 1280 825.732 1280 818Z" fill="white"/>
</svg>
